<?xml version="1.0" encoding="UTF-8" standalone="no"?>
<!-- Created with Inkscape (http://www.inkscape.org/) -->

<svg xmlns:dc="http://purl.org/dc/elements/1.1/" xmlns:cc="http://creativecommons.org/ns#" xmlns:rdf="http://www.w3.org/1999/02/22-rdf-syntax-ns#" xmlns:svg="http://www.w3.org/2000/svg" xmlns="http://www.w3.org/2000/svg" xmlns:sodipodi="http://sodipodi.sourceforge.net/DTD/sodipodi-0.dtd" xmlns:inkscape="http://www.inkscape.org/namespaces/inkscape" width="105mm" height="105mm" viewBox="0 0 372.04724 372.04725" id="svg4168" version="1.1" inkscape:version="0.91 r13725" sodipodi:docname="nta-favicon.svg">
  <defs id="defs4170">
    <inkscape:path-effect effect="spiro" id="path-effect4805" is_visible="true" />
    <inkscape:path-effect effect="powerstroke" id="path-effect4803" is_visible="true" offset_points="0,1.7241379 | 16,1.7241379" sort_points="true" interpolator_type="Linear" interpolator_beta="0.2" start_linecap_type="round" linejoin_type="round" miter_limit="4" end_linecap_type="round" />
    <inkscape:path-effect effect="knot" id="path-effect4799" is_visible="true" interruption_width="3" prop_to_stroke_width="true" add_stroke_width="true" add_other_stroke_width="true" switcher_size="15" crossing_points_vector="" />
    <inkscape:path-effect effect="rough_hatches" id="path-effect4797" is_visible="true" direction="260.03713,196.10012 , 122.04525,0" dist_rdm="75;1" growth="0" do_bend="true" bender="260.03713,201.10012 , 5,0" bottom_edge_variation="35.296467;1" top_edge_variation="35.296467;1" bottom_tgt_variation="0;1" top_tgt_variation="0;1" scale_bf="1" scale_bb="1" scale_tf="1" scale_tb="1" top_smth_variation="0;1" bottom_smth_variation="0;1" fat_output="true" stroke_width_top="1" stroke_width_bottom="1" front_thickness="1" back_thickness="0.25" />
    <inkscape:path-effect effect="construct_grid" id="path-effect4795" is_visible="true" nr_x="5" nr_y="5" />
    <inkscape:path-effect effect="powerstroke" id="path-effect4742" is_visible="true" offset_points="0,1 | 13.5,1" sort_points="true" interpolator_type="Linear" interpolator_beta="0.2" start_linecap_type="round" linejoin_type="round" miter_limit="4" end_linecap_type="round" />
    <inkscape:path-effect effect="bend_path" id="path-effect4740" is_visible="true" bendpath="m 149.6,303.5 485.4,0" prop_scale="1" scale_y_rel="false" vertical="false" />
  </defs>
  <sodipodi:namedview id="base" pagecolor="#ffffff" bordercolor="#666666" borderopacity="1.0" inkscape:pageopacity="0.0" inkscape:pageshadow="2" inkscape:zoom="1.1575153" inkscape:cx="44.512723" inkscape:cy="115.78448" inkscape:document-units="px" inkscape:current-layer="layer2" showgrid="false" inkscape:window-width="1920" inkscape:window-height="1052" inkscape:window-x="1440" inkscape:window-y="0" inkscape:window-maximized="1" showguides="false" fit-margin-top="1.3" fit-margin-left="0" fit-margin-right="0" fit-margin-bottom="0" />
  <metadata id="metadata4173">
    <rdf:RDF>
      <cc:Work rdf:about="">
        <dc:format>image/svg+xml</dc:format>
        <dc:type rdf:resource="http://purl.org/dc/dcmitype/StillImage" />
        <dc:title></dc:title>
      </cc:Work>
    </rdf:RDF>
  </metadata>
  <g inkscape:groupmode="layer" id="layer2" inkscape:label="Layer 2" style="display:inline" transform="translate(-39.160194,58.847833)">
    <path style="fill:#000000;fill-opacity:1;stroke:#ffffff;stroke-width:1.7241379;stroke-miterlimit:4;stroke-dasharray:none;stroke-opacity:1" d="" id="path4774" inkscape:connector-curvature="0" />
    <path style="display:inline;fill:#000000;fill-opacity:1;stroke:#ffffff;stroke-width:1.7241379;stroke-miterlimit:4;stroke-dasharray:none;stroke-opacity:1" d="M 265.51902,-50.949626 253.12422,-4.8421715 235.21847,111.11303 211.20209,123.49558 188.20631,71.305523 178.07678,50.153638 176.93098,74.504854 167.04258,145.06254 43.571558,212.10609 99.8532,192.96238 c 8.93852,-4.27577 17.82284,-8.66486 26.6501,-13.16585 13.12474,-6.69226 26.12333,-13.63192 38.98654,-20.81404 l -26.14456,143.93306 18.82107,-53.97211 20.59261,-95.01315 25.93443,-12.66855 24.76701,54.42488 9.14469,16.45664 0.87966,-25.46533 7.37381,-66.75889 L 350.06218,69.181689 408.0654,36.286244 338.72508,61.777852 250.32724,103.44986 261.82008,-4.2886825 265.51902,-50.949626 Z M 189.53034,104.25721 c 3.47333,8.18639 6.88691,16.39813 10.24036,24.63435 l -18.33769,9.08241 6.63859,-37.14518 c 0.48741,1.14231 0.97366,2.28512 1.45874,3.42842 z m 43.95953,23.53755 -3.83916,36.61322 -12.90721,-28.44451 16.74637,-8.16871 z" id="path4772" inkscape:connector-curvature="0" inkscape:path-effect="#path-effect4805" inkscape:original-d="m 265.51902,-50.949626 c -6.27443,2.827435 -10.13109,40.659019 -12.3948,46.1074545 -10.6067,51.6877335 -7.7829,64.1702605 -17.90575,115.9552015 -8.65798,4.15473 -15.18066,8.60598 -24.01638,12.38255 -8.72552,-17.17286 -12.53267,-35.953632 -22.99578,-52.190057 -4.66796,-4.278939 -14.01026,-26.442508 -10.12953,-21.151885 59.92582,127.898602 -6.7505,-54.2091895 -1.1458,24.351216 -4.23885,22.822276 -5.88628,47.687476 -9.8884,70.557686 -36.64213,18.31352 -87.456975,47.49446 -123.471022,67.04355 -4.608813,3.59092 50.683931,-15.64446 56.281642,-19.14371 19.32509,-7.7809 7.73918,-4.4388 26.6501,-13.16585 14.95557,-7.26979 23.9633,-13.68455 38.98654,-20.81404 -7.85698,47.27213 -18.69867,96.59266 -26.14456,143.93306 1.70231,5.67727 19.00125,-46.74213 18.82107,-53.97211 9.04263,-49.48949 11.50043,-45.54358 20.59261,-95.01315 8.63312,-4.24653 17.28626,-8.45234 25.93443,-12.66855 7.46911,16.21505 15.48487,39.07602 24.76701,54.42488 49.82123,45.81532 -78.60975,-148.485122 9.14469,16.45664 4.04458,2.72262 0.92558,-21.49799 0.87966,-25.46533 4.93745,-21.54519 3.10305,-45.0674 7.37381,-66.75889 80.18092,-39.485882 23.90108,-9.53532 103.20362,-50.737351 4.31249,-1.826319 63.72911,-29.754696 58.00322,-32.895445 -5.77342,-2.34566 -64.12875,24.357339 -69.34032,25.491608 -75.29694,35.555218 -13.25206,5.817335 -88.39784,41.672008 9.33032,-52.813954 3.14178,-54.772129 11.49284,-107.7385425 0.024,-3.995976 7.77033,-47.5095365 3.69894,-46.6609435 z M 189.53034,104.25721 c 3.45456,8.19642 6.78446,16.43579 10.24036,24.63435 -5.92471,3.39229 -12.15089,6.21097 -18.33769,9.08241 2.04901,-12.41032 4.29723,-24.78693 6.63859,-37.14518 z m 43.95953,23.53755 c -1.77723,10.25681 -1.74519,26.41867 -3.83916,36.61322 -3.74495,-8.09599 -9.42458,-20.21391 -12.90721,-28.44451 4.72653,-0.69973 28.75976,-20.59892 16.74637,-8.16871 z" sodipodi:nodetypes="ccccccccccccccccccccccccccccccccccc" />
  </g>
  <g inkscape:label="Layer 1" inkscape:groupmode="layer" id="layer1" style="display:none" transform="translate(-39.160194,58.847833)">
    <g transform="translate(-719.78767,-126.31021)" id="Layer_3">
      <path id="path8" d="m 424.2,130 5.7,2 -56.5,160.5 258.6,-81.7 1.8,5.7 -262.9,83.1 -25.2,71.4 -16.4,-58.3 -15.4,4.9 13.9,55.8 -5.8,1.5 L 308.1,319.5 275,330 225.8,477 220.1,475.1 268,332 l -115.3,36.4 -1.8,-5.7 119.5,-37.7 26,-77.7 16.1,64.4 15.2,-4.8 -16.6,-59.1 5.8,-1.6 16.5,58.9 32.7,-10.4 58.1,-164.7 m -146.7,192.8 29.3,-9.3 -11.2,-44.8 -18.1,54.1 m 68.8,28.3 17.3,-49.2 -28.6,9.1 11.3,40.1 m 77.3,-222.4 -0.3,0.9 -57.9,164.3 -31.3,9.9 -16.3,-57.9 -0.3,-1 -1,0.3 -5.8,1.6 -1,0.3 0.3,1 16.3,58.1 -13.2,4.2 -15.8,-63.3 -0.8,-3.3 -1.1,3.2 -25.8,77.2 -119,37.6 -1,0.3 0.3,1 1.8,5.7 0.3,1 1,-0.3 113.4,-35.8 -47.3,141.2 -0.3,0.9 0.9,0.3 5.7,1.9 0.9,0.3 0.3,-0.9 49.1,-146.7 31.6,-10 13.6,54.4 0.2,1 1,-0.2 5.8,-1.5 1,-0.2 -0.2,-1 -13.7,-54.8 13.5,-4.3 16.1,57.3 0.9,3 1.1,-3 25,-70.9 262.4,-82.9 1,-0.3 -0.3,-1 -1.8,-5.7 -0.3,-1 -1,0.3 -256.7,81.1 55.8,-158.6 0.3,-0.9 -0.9,-0.3 -5.7,-2 -0.8,-0.5 0,0 z m -144.5,192.5 16.4,-48.9 10.1,40.6 -26.5,8.3 0,0 z m 57.2,-9.7 25.8,-8.2 -15.6,44.4 -10.2,-36.2 0,0 z" style="fill:#000000" inkscape:connector-curvature="0" />
    </g>
  </g>
</svg>
