<?xml version="1.0" encoding="UTF-8" standalone="no"?>
<!-- Generator: Adobe Illustrator 20.1.0, SVG Export Plug-In . SVG Version: 6.00 Build 0)  -->

<svg xmlns:dc="http://purl.org/dc/elements/1.1/" xmlns:cc="http://creativecommons.org/ns#" xmlns:rdf="http://www.w3.org/1999/02/22-rdf-syntax-ns#" xmlns:svg="http://www.w3.org/2000/svg" xmlns="http://www.w3.org/2000/svg" xmlns:sodipodi="http://sodipodi.sourceforge.net/DTD/sodipodi-0.dtd" xmlns:inkscape="http://www.inkscape.org/namespaces/inkscape" version="1.1" x="0px" y="0px" viewBox="0 0 792 612" xml:space="preserve" id="svg2" inkscape:version="0.91 r13725" sodipodi:docname="NTA-LOGO-fiill.svg"><metadata id="metadata30"><rdf:RDF><cc:Work rdf:about=""><dc:format>image/svg+xml</dc:format><dc:type rdf:resource="http://purl.org/dc/dcmitype/StillImage" /><dc:title></dc:title></cc:Work></rdf:RDF></metadata><defs id="defs28" /><sodipodi:namedview pagecolor="#ffffff" bordercolor="#666666" borderopacity="1" objecttolerance="10" gridtolerance="10" guidetolerance="10" inkscape:pageopacity="0" inkscape:pageshadow="2" inkscape:window-width="1316" inkscape:window-height="749" id="namedview26" showgrid="false" inkscape:zoom="1.3504346" inkscape:cx="396" inkscape:cy="306" inkscape:window-x="1686" inkscape:window-y="119" inkscape:window-maximized="0" inkscape:current-layer="layer3" /><style type="text/css" id="style4">
	.st0{fill:#231F20;}
</style><g id="Layer_2" /><g id="Layer_3"><path class="st0" d="M424.2,130l5.7,2l-56.5,160.5l258.6-81.7l1.8,5.7l-262.9,83.1L345.7,371l-16.4-58.3l-15.4,4.9l13.9,55.8   l-5.8,1.5l-13.9-55.4l-33.1,10.5L225.8,477l-5.7-1.9L268,332l-115.3,36.4l-1.8-5.7L270.4,325l26-77.7l16.1,64.4l15.2-4.8   l-16.6-59.1l5.8-1.6l16.5,58.9l32.7-10.4L424.2,130 M277.5,322.8l29.3-9.3l-11.2-44.8L277.5,322.8 M346.3,351.1l17.3-49.2   l-28.6,9.1L346.3,351.1 M423.6,128.7l-0.3,0.9l-57.9,164.3l-31.3,9.9l-16.3-57.9l-0.3-1l-1,0.3l-5.8,1.6l-1,0.3l0.3,1l16.3,58.1   l-13.2,4.2l-15.8-63.3l-0.8-3.3l-1.1,3.2l-25.8,77.2l-119,37.6l-1,0.3l0.3,1l1.8,5.7l0.3,1l1-0.3l113.4-35.8l-47.3,141.2l-0.3,0.9   l0.9,0.3l5.7,1.9l0.9,0.3l0.3-0.9l49.1-146.7l31.6-10l13.6,54.4l0.2,1l1-0.2l5.8-1.5l1-0.2l-0.2-1l-13.7-54.8l13.5-4.3l16.1,57.3   l0.9,3l1.1-3l25-70.9l262.4-82.9l1-0.3l-0.3-1l-1.8-5.7l-0.3-1l-1,0.3l-256.7,81.1l55.8-158.6l0.3-0.9l-0.9-0.3l-5.7-2L423.6,128.7   L423.6,128.7z M279.1,321.2l16.4-48.9l10.1,40.6L279.1,321.2L279.1,321.2z M336.3,311.5l25.8-8.2l-15.6,44.4L336.3,311.5   L336.3,311.5z" id="path8" /></g><g id="Layer_6" /><g id="Layer_5"><path class="st0" d="M406.4,291.7l2,5.7l-16.1,5.7c-5.4,8.6-9.5,16.8-12.6,24.2l17.7-6l1.9,5.7l-22.5,7.6c-3.3,9-4.9,16.2-5.7,20.6   l20.5-6.9l1.9,5.7l-29.5,10l0.4-4.6c0.1-1.1,2.7-28.1,23.4-60.3l0.6-0.9L406.4,291.7 M407,290.4l-0.9,0.3l-18,6.3l-0.3,0.1   l-0.2,0.3l-0.6,0.9c-20.8,32.5-23.4,59.7-23.5,60.8l-0.4,4.6l-0.1,1.5l1.5-0.5l29.5-10l0.9-0.3l-0.3-0.9l-1.9-5.7l-0.3-0.9   l-0.9,0.3l-18.8,6.4c0.9-4.4,2.5-10.7,5.2-18.3l22-7.5l0.9-0.3l-0.3-0.9l-1.9-5.7l-0.3-0.9l-0.9,0.3l-15.6,5.3   c3.3-7.5,7.1-14.7,11.5-21.7l15.8-5.5l0.9-0.3l-0.3-0.9l-2-5.7L407,290.4L407,290.4z" id="path12" /></g><g id="Layer_4"><path class="st0" d="M429.7,287.5c1.9,0,3.6,0.3,5.1,0.8c4.2,1.5,6.9,4.9,7.2,9c0.4,4.9-2.3,14.4-21.9,26.9   c6.3,4.5,14.5,12.2,14.9,18.5l-6,0.4c-0.3-4.3-9.4-12.3-14.5-15.5c-0.7,0.4-1.4,0.8-2.2,1.2c-4.4,14.3-5.3,24.2-5.3,24.4l-6-0.5   c0.1-1.2,2.2-26.2,17.7-54.7c-0.5,0.5-1.1,1-1.6,1.5l-4.4-4.1C418.2,289.8,424.5,287.5,429.7,287.5 M415.3,320.2   c15.7-9.6,21.1-17.7,20.8-22.4c-0.2-2.3-1.8-3.3-3.2-3.8c-0.9-0.3-2-0.5-3.2-0.5c-0.4,0-0.9,0-1.4,0.1   C422.6,302.8,418.4,312,415.3,320.2 M429.7,286.5c-6.2,0-12.6,3-17.6,8.2l-0.7,0.7l0.7,0.7l4.3,4.1c-14.3,27.7-16.3,51.4-16.4,52.4   l-0.1,1l1,0.1l6,0.5l1,0.1l0.1-1c0-0.1,0.8-9.8,5.1-23.7c0.4-0.2,0.9-0.5,1.3-0.7c5.4,3.6,13.3,10.9,13.5,14.4l0.1,1l1-0.1l6-0.4   l1-0.1l-0.1-1c-0.4-6.1-7.3-13.3-14.1-18.4c19.2-12.5,21.5-22.3,21.1-27.1c-0.4-4.6-3.3-8.3-7.9-9.9   C433.5,286.8,431.7,286.5,429.7,286.5L429.7,286.5z M428.9,294.5c0.3,0,0.5,0,0.8,0c1,0,2,0.2,2.8,0.4c1.6,0.6,2.5,1.5,2.6,2.9   c0.3,3.9-4.3,11.1-17.7,19.9C420.5,309.6,424.4,301.8,428.9,294.5L428.9,294.5z" id="path15" /></g><g id="Layer_7"><path class="st0" d="M511.1,260.9c2,0,3.7,0.9,4.9,2.6c4,5.5,1.5,19.4-6.3,35.4l-5.4-2.6c8.7-17.7,8.3-28.1,6.8-29.3h0   c-1.4,0-9.1,5.3-18.9,31.4c-7.5,21.8-4.1,26.4-3.7,26.9c0.1,0.1,0.3,0.3,0.8,0.3c0.2,0,0.4,0,0.6-0.1c3.1-0.7,8.7-6,12.2-14.2   l0.2-0.5c0.5-1.1,0.9-2.3,1.3-3.6l5.8,1.7c-0.4,1.4-0.9,2.7-1.4,4l-5.3,38.7l-2.8-0.4l-0.2,0.9c-3.8-1-8.6-1.5-14.1-1.5   c-20.3,0-49.8,6.9-72.5,20.2c-16.7,9.9-27.3,22-30.6,35.1c-0.7,2.7-1.1,6,0.7,6.4c0.3,0.1,0.7,0.1,1.1,0.1c4,0,12.9-3.6,25-12.3   c10.4-7.4,17.1-14,19.3-17.1l-1.3-4.8c0.7-0.2,2-0.6,3.5-0.6c1.5,0,3.2,0.4,4.1,2c1.5,2.6,0,5.9-5.2,11.2   c-8.4,8.6-32.5,27.4-45.5,27.4c-1.7,0-3.2-0.3-4.4-1c-3.7-2.1-4.7-6.4-3.1-12.9c3.7-14.7,15.2-28.1,33.3-38.8   c23.5-13.9,54.4-21,75.9-21c4.2,0,8.1,0.3,11.5,0.8l2.8-20c-2.9,3.1-6,5.2-8.9,5.8c-0.7,0.2-1.3,0.2-1.9,0.2   c-2.1,0-3.9-0.8-5.2-2.3c-4.2-4.7-3.3-15.8,2.5-32.9c8.1-21.5,16.7-34.3,23.8-35.3C510.6,260.9,510.8,260.9,511.1,260.9    M511.1,259.9c-0.3,0-0.6,0-1,0.1c-7.6,1-16.3,13.8-24.6,35.9c-6.1,17.8-6.9,28.8-2.4,33.9c1.6,1.7,3.6,2.7,6,2.7   c0.7,0,1.4-0.1,2.1-0.2c2.4-0.5,4.9-1.9,7.3-4.1l-2.2,16.1c-3.2-0.5-6.7-0.7-10.6-0.7c-20.2,0-51.6,6.5-76.4,21.1   c-18.4,10.8-30.1,24.5-33.8,39.4c-1.8,7-0.5,11.7,3.6,14c1.4,0.8,3,1.1,4.9,1.1c13.7,0,38.3-19.5,46.2-27.7   c5.6-5.7,7.2-9.3,5.3-12.4c-1-1.7-2.7-2.5-5-2.5c-1.5,0-3,0.4-3.7,0.6l-1,0.3l0.3,1l1.2,4.3c-2.6,3.4-9.5,9.9-18.8,16.5   c-12.5,8.9-21,12.1-24.4,12.1c-0.3,0-0.6,0-0.9-0.1c-0.5-0.1-0.9-1.6,0-5.2c3.2-12.8,13.6-24.8,30.1-34.5   c23.5-13.9,53.1-20.1,71.9-20.1c5.5,0,10.1,0.5,13.8,1.5l1,0.3l0.3-1l0,0l1.9,0.3l1,0.1l0.1-1l5.3-38.5c0.5-1.3,1-2.7,1.4-4l0.3-1   l-1-0.3l-5.8-1.7l-1-0.3l-0.3,1c-0.3,1.2-0.8,2.3-1.2,3.5l-0.2,0.5c-3.5,8.3-8.9,13-11.5,13.6c-0.2,0-0.3,0-0.4,0c0,0,0,0-0.1,0   l0,0c0,0-3.5-4.3,3.9-25.8c9.1-24.3,16-29.6,17.6-30.5c0.8,2.1,0.7,11.5-7.3,27.7l-0.4,0.9l0.9,0.4l5.4,2.6l0.9,0.4l0.4-0.9   c8.1-16.5,10.5-30.5,6.3-36.4C515.5,261,513.4,259.9,511.1,259.9L511.1,259.9z" id="path18" /></g><g id="Layer_9"><path class="st0" d="M463,277.1l5.9,0.8c-1.3,9.9-1.4,18.5-0.7,25.8l7.7-3l2.2,5.6l-9.1,3.5c2.2,14.7,7,22.4,7.1,22.6l-5.1,3.2   c-0.3-0.5-5.3-8.5-7.8-23.5l-11.4,4.4c-4.8,15-5.7,25.6-5.7,25.8l-6-0.5c0-0.7,0.8-9.5,4.5-22.5l-6.5,2.5l-2.2-5.6l11-4.3   c3.4-10,8.5-21.7,16-33.6C462.9,277.9,463,277.5,463,277.1 M454.3,309.1l8-3.1c-0.4-4.2-0.6-8.7-0.5-13.7   C458.8,298.1,456.3,303.8,454.3,309.1 M462.2,276l-0.1,1c-0.1,0.3-0.1,0.7-0.1,1c-6.5,10.3-11.8,21.5-15.8,33.2l-10.5,4.1l-0.9,0.4   l0.4,0.9l2.2,5.6l0.4,0.9l0.9-0.4l4.6-1.8c-3.4,12.3-4,20.4-4,20.8l-0.1,1l1,0.1l6,0.5l1,0.1l0.1-1c0-0.1,0.9-10.4,5.5-25l9.8-3.8   c2.5,14.2,7.2,21.9,7.7,22.7l0.5,0.8l0.8-0.5l5.1-3.2l0.9-0.5l-0.6-0.8c0-0.1-4.5-7.3-6.8-21.4l8.4-3.2l0.9-0.4l-0.4-0.9l-2.2-5.6   l-0.4-0.9l-0.9,0.4l-6.4,2.5c-0.6-7.7-0.3-15.9,0.8-24.2l0.1-1l-1-0.1l-5.9-0.8L462.2,276L462.2,276z M456.1,307.3   c1.4-3.7,3-7.3,4.7-10.9c0,3,0.2,6,0.5,8.8L456.1,307.3L456.1,307.3z" id="path21" /></g><g id="Layer_5_copy"><path class="st0" d="M555.9,247.2l2,5.7l-16.1,5.7c-5.4,8.6-9.5,16.8-12.6,24.2l17.7-6l1.9,5.7l-22.5,7.6c-3.2,9-4.9,16.2-5.7,20.6   l20.5-6.9l1.9,5.7l-29.5,10l0.4-4.6c0.1-1.1,2.7-28.1,23.4-60.3l0.6-0.9L555.9,247.2 M556.5,245.9l-0.9,0.3l-18,6.3l-0.3,0.1   L537,253l-0.6,0.9c-20.2,31.6-23.3,57.9-23.6,60.8l-0.4,4.6l-0.1,1.5l1.5-0.5l29.5-10l0.9-0.3l-0.3-0.9l-1.9-5.7l-0.3-0.9l-0.9,0.3   l-18.8,6.4c0.9-4.4,2.5-10.7,5.2-18.3l22.1-7.5l0.9-0.3l-0.3-0.9l-1.9-5.7l-0.3-0.9l-0.9,0.3L531,281c3.3-7.5,7.1-14.7,11.5-21.7   l15.8-5.5l0.9-0.3l-0.3-0.9l-2-5.7L556.5,245.9L556.5,245.9z" id="path24" /></g><g inkscape:groupmode="layer" id="layer3" inkscape:label="Layer 1"><path style="fill:#000000;fill-opacity:1;stroke:#ffffff;stroke-width:1.48100471;stroke-miterlimit:4;stroke-dasharray:none;stroke-opacity:1" d="" id="path4865" inkscape:connector-curvature="0" /><path style="fill:#000000;fill-opacity:1;stroke:#ffffff;stroke-width:1.48100471;stroke-miterlimit:4;stroke-dasharray:none;stroke-opacity:1" d="m 223.04577,475.64162 c -1.00328,-0.40048 -1.91786,-0.82188 -2.03242,-0.93644 -0.11455,-0.11455 10.46008,-32.15126 23.49919,-71.19267 13.03911,-39.04143 23.61725,-71.19503 23.50698,-71.45245 -0.11026,-0.25743 -25.96684,7.66684 -57.45906,17.60949 -31.49222,9.94264 -57.39708,17.93904 -57.56635,17.76977 -0.16927,-0.16927 -0.49828,-1.28314 -0.73113,-2.47528 l -0.42337,-2.16751 58.9405,-18.51256 c 32.41727,-10.1819 59.21243,-18.67917 59.5448,-18.88281 0.33238,-0.20364 6.09004,-16.84412 12.7948,-36.97884 6.70476,-20.13472 12.54214,-36.7258 12.97195,-36.86908 0.46459,-0.15486 3.86076,12.06298 8.37498,30.1292 4.17642,16.71432 7.75056,30.38968 7.94253,30.38968 0.45677,0 15.32811,-4.58328 15.59646,-4.80676 0.11324,-0.0943 -3.51095,-13.39361 -8.05377,-29.554 -4.54282,-16.16039 -8.13435,-29.4967 -7.98117,-29.63624 0.15317,-0.13953 1.27817,-0.46643 2.5,-0.72643 l 2.22151,-0.47271 8.08288,29.08068 c 4.44559,15.99438 8.17206,29.1972 8.28104,29.33961 0.10898,0.14241 1.30346,-0.0878 2.6544,-0.51158 1.35093,-0.42377 8.82796,-2.79541 16.61562,-5.27029 l 14.15938,-4.49979 28.73013,-81.62741 c 15.80157,-44.89507 28.9446,-81.8817 29.20675,-82.1925 0.26214,-0.31081 1.48135,-0.21485 2.70934,0.21323 l 2.23272,0.77833 -28.1342,79.94728 c -15.47381,43.971 -27.9683,80.11318 -27.76555,80.31593 0.27808,0.27809 251.83087,-78.75737 257.08578,-80.77387 0.69348,-0.26611 1.33095,0.40638 1.88105,1.98442 0.45766,1.31282 0.74729,2.46044 0.64363,2.55026 -0.17084,0.14805 -172.79511,54.75155 -235.66822,74.54519 -14.25467,4.48764 -26.19076,8.41055 -26.52465,8.71757 -0.33388,0.30702 -5.88408,15.51347 -12.33376,33.79212 -7.38095,20.91791 -12.08587,33.23388 -12.69592,33.23388 -0.64207,0 -3.52348,-9.08576 -8.53657,-26.91776 -4.16203,-14.80478 -7.67263,-27.01165 -7.80132,-27.12641 -0.25556,-0.22787 -15.34006,4.4797 -15.78724,4.92687 -0.15124,0.15125 2.83525,12.70212 6.63664,27.89083 l 6.91164,27.61584 -1.82261,0.69295 c -1.00243,0.38113 -2.11847,0.69296 -2.4801,0.69296 -0.79539,0 -0.50136,1.07126 -8.19579,-29.86015 l -6.2306,-25.04688 -2.18564,0.43652 c -1.2021,0.24008 -8.8663,2.58394 -17.03155,5.20858 l -14.84592,4.77207 -24.43237,73.33959 c -13.4378,40.33678 -24.60088,73.31848 -24.80683,73.29266 -0.20595,-0.0259 -1.19532,-0.37461 -2.19859,-0.77509 z m 132.5011,-149.34266 c 4.59712,-13.14996 8.18003,-24.0874 7.96201,-24.30542 -0.60104,-0.60105 -28.67438,8.55788 -28.67438,9.35502 0,0.66219 6.56605,24.33413 9.72532,35.06175 0.82418,2.79859 1.75279,4.79794 2.06358,4.44301 0.31078,-0.35493 4.32635,-11.40439 8.92347,-24.55436 z m -61.71346,-8.24482 c 7.27774,-2.34784 13.19267,-4.57097 13.14428,-4.94029 -0.33028,-2.52094 -11.07357,-44.73137 -11.38492,-44.73137 -0.21493,0 -4.35085,11.91283 -9.19093,26.47296 -4.84009,14.56013 -8.96074,26.90642 -9.157,27.4362 -0.45493,1.22802 0.0338,1.10318 16.58857,-4.2375 z" id="path4867" inkscape:connector-curvature="0" /><path style="fill:#000000;fill-opacity:1;stroke:#ffffff;stroke-width:1.48100471;stroke-miterlimit:4;stroke-dasharray:none;stroke-opacity:1" d="m 364.79886,359.39094 c 2.09346,-16.28954 9.57548,-36.66899 19.86101,-54.09723 l 4.08446,-6.92088 8.55403,-2.93547 c 4.70472,-1.61451 8.7515,-2.73801 8.99285,-2.49666 0.24134,0.24134 0.50708,1.34129 0.59054,2.44432 0.14414,1.90509 -0.23168,2.14263 -7.50577,4.74403 l -7.6575,2.73852 -3.36459,5.89815 c -4.23325,7.42094 -9.28201,18.17051 -8.77316,18.67937 0.21208,0.21208 4.23798,-0.98544 8.94644,-2.66115 l 8.56085,-3.04674 0.71484,1.88019 c 1.07365,2.8239 0.94564,3.07523 -2.06204,4.0486 -1.52728,0.49428 -6.52572,2.22094 -11.10764,3.83703 l -8.33077,2.93835 -1.84799,6.03206 c -2.89418,9.44696 -4.13013,15.46499 -3.09834,15.0863 5.81049,-2.1326 19.92397,-6.54196 20.16571,-6.30022 0.17378,0.17378 0.51072,1.29135 0.74875,2.48348 l 0.43278,2.16751 -13.19873,4.36284 c -7.25931,2.39956 -13.65346,4.53253 -14.20923,4.73993 -0.8133,0.30351 -0.91019,-0.40336 -0.4965,-3.62233 z" id="path4869" inkscape:connector-curvature="0" /><path style="fill:#000000;fill-opacity:1;stroke:#ffffff;stroke-width:1.48100471;stroke-miterlimit:4;stroke-dasharray:none;stroke-opacity:1" d="" id="path4871" inkscape:connector-curvature="0" /><path style="fill:#000000;fill-opacity:1;stroke:#ffffff;stroke-width:1.48100471;stroke-miterlimit:4;stroke-dasharray:none;stroke-opacity:1" d="m 401.78716,351.79234 c -0.67701,-1.76425 3.22541,-19.06783 6.37298,-28.25825 1.67084,-4.87862 4.83948,-12.63813 7.04142,-17.24335 3.09964,-6.48274 3.70502,-8.27841 2.68141,-7.95352 -0.82913,0.26315 -1.935,-0.23277 -2.96576,-1.32996 l -1.64365,-1.74958 2.6312,-2.00691 c 8.92975,-6.81105 20.02744,-6.908 24.11106,-0.21064 1.89366,3.10572 1.83616,7.38686 -0.15551,11.5783 -1.86295,3.92054 -11.2343,13.50482 -16.34932,16.72081 -1.93384,1.21587 -3.51666,2.42011 -3.51739,2.67609 -7.3e-4,0.25599 1.80794,2.01113 4.01925,3.90031 4.80581,4.10573 8.1864,8.23948 9.69916,11.86001 l 1.11019,2.65707 -2.79118,0 c -2.38182,0 -2.93372,-0.32202 -3.76306,-2.19563 -0.53453,-1.20759 -3.50038,-4.55696 -6.59076,-7.44304 -8.92433,-8.33434 -9.96647,-7.46525 -13.55577,11.3048 l -1.66383,8.7009 -2.14193,0 c -1.17806,0 -2.31589,-0.45334 -2.52851,-1.00741 z m 19.59208,-35.06242 c 14.94183,-10.61946 19.58954,-21.59647 9.91548,-23.4185 -3.19566,-0.60187 -4.16766,0.52922 -9.29786,10.81968 -5.21447,10.45949 -7.43419,16.08655 -6.3457,16.08655 0.45143,0 3.02907,-1.56948 5.72808,-3.48773 z" id="path4873" inkscape:connector-curvature="0" /><path style="fill:#000000;fill-opacity:1;stroke:#ffffff;stroke-width:1.48100471;stroke-miterlimit:4;stroke-dasharray:none;stroke-opacity:1" d="m 441.07052,337.57167 c 0.28316,-2.2663 1.29477,-7.34669 2.24802,-11.28977 0.95325,-3.94307 1.6442,-7.25821 1.53545,-7.36696 -0.10876,-0.10876 -1.40449,0.30647 -2.87941,0.92273 -1.47492,0.61626 -2.98948,1.12048 -3.36568,1.12048 -0.57638,0 -1.50058,-2.35571 -1.65489,-4.21817 -0.0238,-0.28727 2.21449,-1.38069 4.97398,-2.42981 4.96524,-1.88772 5.03553,-1.95335 6.77954,-6.33066 3.31912,-8.33069 7.06422,-16.27435 11.01485,-23.36338 3.77338,-6.77098 4.0518,-7.07758 6.14766,-6.76997 l 2.19528,0.32219 -0.39225,11.9535 c -0.22416,6.83085 -0.0988,12.37367 0.29254,12.93398 0.56292,0.806 1.18124,0.77305 3.4745,-0.18513 3.82138,-1.59667 4.38267,-1.49144 5.32227,0.99785 0.81399,2.15651 0.8026,2.16872 -3.54016,3.7928 -3.51622,1.31498 -4.35679,1.94623 -4.35679,3.27185 0,2.72493 2.84263,12.96333 4.76503,17.16242 l 1.80288,3.93801 -2.14024,1.52399 -2.14025,1.52399 -1.05403,-2.06334 c -1.75553,-3.43659 -4.70817,-12.1702 -5.64192,-16.68826 -0.51699,-2.50149 -1.27009,-4.25789 -1.82569,-4.25789 -0.52013,0 -3.24562,0.94001 -6.05664,2.0889 l -5.11094,2.0889 -1.60786,5.50125 c -0.88433,3.02569 -2.19193,8.7502 -2.9058,12.72115 l -1.29793,7.21989 -2.54817,0 -2.54817,0 0.51482,-4.12054 z m 18.13593,-29.88218 3.29981,-1.33787 -0.21817,-6.95141 c -0.11999,-3.82327 -0.35312,-7.08806 -0.51806,-7.25509 -0.31848,-0.3225 -6.42675,12.48087 -7.29883,15.29886 -0.63088,2.03859 0.2057,2.08197 4.73525,0.24551 z" id="path4875" inkscape:connector-curvature="0" /><path style="fill:#000000;fill-opacity:1;stroke:#ffffff;stroke-width:1.48100471;stroke-miterlimit:4;stroke-dasharray:none;stroke-opacity:1" d="" id="path4877" inkscape:connector-curvature="0" /><path style="fill:#000000;fill-opacity:1;stroke:#ffffff;stroke-width:1.48100471;stroke-miterlimit:4;stroke-dasharray:none;stroke-opacity:1" d="m 381.1159,417.26392 c -6.60648,-2.70398 -5.81815,-13.36468 1.95892,-26.49085 5.68099,-9.58838 19.46547,-21.11372 34.31429,-28.69051 21.85277,-11.15063 53.93427,-18.55486 73.80171,-17.03303 l 6.4046,0.49058 0.41418,-2.10907 c 0.2278,-1.15999 0.76846,-4.77489 1.20147,-8.0331 0.433,-3.25821 0.97618,-7.09031 1.20708,-8.51577 l 0.41981,-2.59176 -1.73159,1.58838 c -4.64888,4.26438 -9.81845,5.78016 -13.32075,3.90578 -5.89442,-3.1546 -4.24918,-19.80564 3.9201,-39.67442 8.04843,-19.57483 17.11839,-30.71187 23.14546,-28.42038 5.82698,2.21541 5.99908,12.30203 0.46957,27.52132 -3.0955,8.52 -3.59182,9.15903 -6.19303,7.97384 -1.41889,-0.64649 -1.8867,-1.27952 -1.54536,-2.09114 6.14528,-14.61201 8.53257,-28.19232 4.95593,-28.19232 -4.34003,0 -15.4793,20.20091 -20.62072,37.39537 -2.1116,7.06183 -3.20211,19.11957 -1.90263,21.03736 1.07498,1.58645 4.64035,-0.17655 8.2278,-4.06848 2.25926,-2.45102 6.27219,-9.32524 7.85444,-13.45483 0.0397,-0.10365 1.14634,0.18598 2.45916,0.64363 1.79898,0.62713 2.25711,1.12956 1.85987,2.03972 -0.2899,0.6642 -1.78981,10.03812 -3.33314,20.83094 -1.54333,10.79282 -2.82608,19.62331 -2.85055,19.62331 -32.8384,0 -32.73104,-0.005 -42.5505,2.08911 -18.80334,4.01053 -38.78106,11.9061 -51.57087,20.38177 -7.808,5.17428 -15.58557,12.59836 -19.80117,18.9012 -3.84187,5.74408 -7.09581,14.46375 -6.69797,17.94877 0.23408,2.05046 0.39475,2.13563 3.80541,2.01722 7.31189,-0.25385 24.92547,-10.91518 36.97133,-22.37837 6.49132,-6.17734 6.57095,-6.2961 6.09804,-9.09521 -0.45544,-2.69573 -0.38187,-2.83615 1.48586,-2.83615 7.31863,0 6.1407,6.44074 -2.64376,14.45575 -12.79975,11.67858 -27.91001,21.44692 -37.64649,24.33736 -4.40136,1.30663 -6.31184,1.41679 -8.5665,0.49398 z" id="path4879" inkscape:connector-curvature="0" /><path style="fill:#000000;fill-opacity:1;stroke:#ffffff;stroke-width:1.48100471;stroke-miterlimit:4;stroke-dasharray:none;stroke-opacity:1" d="m 514.04768,316.70026 c 0.0153,-2.68681 2.56238,-14.67205 4.34372,-20.43936 3.55898,-11.52262 10.96718,-27.90058 17.2627,-38.16416 l 2.44831,-3.99148 8.7481,-3.15248 8.7481,-3.15249 0.6933,1.82352 c 0.38132,1.00294 0.69331,2.10355 0.69331,2.44579 0,0.52205 -8.01245,3.71596 -13.8339,5.51445 -0.97444,0.30104 -2.94283,2.76321 -4.95994,6.20415 -3.77823,6.4452 -9.62965,18.62627 -9.16885,19.08706 0.16702,0.16702 4.17228,-0.99601 8.90059,-2.58451 l 8.59692,-2.88819 0.79291,2.27456 c 0.4361,1.25101 0.67079,2.39669 0.52152,2.54596 -0.14927,0.14926 -5.06586,1.87376 -10.92575,3.83221 l -10.65435,3.56082 -1.36908,3.63785 c -1.57857,4.1945 -5.06033,17.44885 -4.68278,17.8264 0.13966,0.13966 4.69477,-1.25887 10.12246,-3.10785 5.4277,-1.84897 10.13823,-3.09208 10.46784,-2.76247 0.32961,0.32961 0.69218,1.40395 0.8057,2.38742 0.19487,1.68822 -0.53833,2.04705 -13.12264,6.42213 -7.33097,2.5487 -13.57896,4.65269 -13.88441,4.67553 -0.30546,0.0228 -0.55016,-0.87485 -0.54378,-1.99486 z" id="path4881" inkscape:connector-curvature="0" /></g></svg>